<?xml version="1.0" encoding="UTF-8"?> <svg xmlns="http://www.w3.org/2000/svg" id="Layer_2" viewBox="0 0 966.74 150"><defs><style>.cls-1{fill-rule:evenodd;}.cls-1,.cls-2{fill:#000f9f;}</style></defs><g id="Final_2022"><g><g><path class="cls-2" d="M197.51,64.91c0-3.43,.6-6.83,1.79-10.18,1.19-3.35,2.93-6.35,5.21-8.99,2.28-2.64,5.07-4.78,8.37-6.42,3.3-1.64,7.05-2.46,11.26-2.46,4.97,0,9.27,1.14,12.9,3.41,3.63,2.27,6.33,5.23,8.1,8.87l-8.07,5.78c-.71-1.58-1.57-2.92-2.59-4-1.02-1.08-2.11-1.94-3.27-2.57-1.17-.63-2.39-1.1-3.65-1.39-1.27-.29-2.51-.44-3.73-.44-2.64,0-4.93,.55-6.89,1.66-1.95,1.11-3.58,2.55-4.87,4.32-1.29,1.77-2.27,3.78-2.93,6.02-.66,2.25-.99,4.48-.99,6.69,0,2.48,.38,4.87,1.14,7.17,.76,2.3,1.84,4.32,3.23,6.06,1.39,1.74,3.07,3.14,5.02,4.2,1.95,1.06,4.1,1.59,6.43,1.59,1.22,0,2.48-.16,3.8-.48,1.32-.32,2.57-.82,3.77-1.51,1.19-.69,2.29-1.57,3.31-2.65,1.01-1.08,1.83-2.39,2.43-3.92l8.6,5.15c-.86,2.11-2.09,3.97-3.69,5.58-1.6,1.61-3.4,2.97-5.4,4.08-2,1.11-4.15,1.96-6.43,2.54-2.28,.58-4.52,.87-6.7,.87-3.86,0-7.38-.84-10.58-2.53-3.2-1.69-5.95-3.89-8.26-6.61-2.31-2.72-4.11-5.81-5.4-9.27-1.29-3.46-1.94-6.98-1.94-10.58Z"></path><path class="cls-2" d="M276.04,93.83c-3.96,0-7.55-.8-10.77-2.42-3.22-1.61-5.99-3.75-8.29-6.42-2.31-2.67-4.1-5.72-5.36-9.15-1.27-3.43-1.9-6.94-1.9-10.54s.67-7.34,2.02-10.77c1.34-3.43,3.2-6.47,5.56-9.11,2.36-2.64,5.16-4.74,8.41-6.3,3.25-1.56,6.77-2.34,10.58-2.34s7.47,.83,10.69,2.5c3.22,1.66,5.97,3.84,8.26,6.54,2.28,2.69,4.06,5.76,5.33,9.19,1.27,3.43,1.9,6.92,1.9,10.46,0,3.75-.66,7.33-1.98,10.73-1.32,3.41-3.15,6.42-5.48,9.03-2.33,2.61-5.12,4.7-8.37,6.26-3.25,1.56-6.77,2.34-10.58,2.34Zm-15.68-28.52c0,2.43,.35,4.78,1.07,7.05,.71,2.27,1.74,4.28,3.08,6.02,1.34,1.74,2.99,3.14,4.95,4.2,1.95,1.06,4.17,1.59,6.66,1.59s4.78-.54,6.73-1.62c1.95-1.08,3.6-2.52,4.95-4.32,1.34-1.8,2.36-3.81,3.04-6.06,.68-2.24,1.03-4.53,1.03-6.85s-.37-4.78-1.1-7.05c-.74-2.27-1.78-4.28-3.12-6.02-1.34-1.74-2.99-3.13-4.95-4.16-1.95-1.03-4.15-1.54-6.58-1.54s-4.79,.54-6.77,1.62c-1.98,1.08-3.63,2.51-4.95,4.28-1.32,1.77-2.32,3.78-3.01,6.02-.68,2.25-1.03,4.53-1.03,6.85Z"></path><path class="cls-2" d="M321.01,57.39v36.04h-10.5V37.19h8.14l28.15,36.91V37.27h10.5v56.16h-8.52l-27.77-36.04Z"></path><path class="cls-2" d="M367.35,76.48v-9.58h23.06v9.58h-23.06Z"></path><path class="cls-2" d="M400.38,93.43V37.19h10.5v46.66h27.55v9.58h-38.05Z"></path><path class="cls-2" d="M460.19,37.19h9.28l20.54,56.24h-10.8l-5.02-14.02h-18.87l-4.95,14.02h-10.81l20.62-56.24Zm12.1,34.54l-7.46-22.1-7.76,22.1h15.22Z"></path><path class="cls-2" d="M528.14,51.92c-.36-.37-1-.87-1.94-1.5-.94-.63-2.08-1.25-3.42-1.86-1.34-.61-2.8-1.12-4.38-1.54-1.57-.42-3.17-.63-4.79-.63-2.89,0-5.05,.55-6.47,1.66-1.42,1.11-2.13,2.67-2.13,4.67,0,1.16,.27,2.13,.8,2.89,.53,.77,1.31,1.44,2.32,2.02,1.01,.58,2.3,1.11,3.84,1.58,1.55,.48,3.33,.98,5.36,1.51,2.64,.74,5.03,1.53,7.19,2.38,2.16,.85,3.98,1.9,5.48,3.17,1.5,1.27,2.65,2.79,3.46,4.56,.81,1.77,1.22,3.95,1.22,6.53,0,3.01-.55,5.58-1.64,7.72-1.09,2.14-2.56,3.87-4.41,5.19-1.85,1.32-3.98,2.28-6.39,2.89-2.41,.61-4.93,.91-7.57,.91-4.06,0-8.07-.63-12.02-1.9-3.96-1.27-7.51-3.06-10.65-5.39l4.64-9.43c.46,.48,1.28,1.1,2.47,1.86,1.19,.77,2.6,1.53,4.22,2.3,1.62,.77,3.42,1.41,5.4,1.94,1.98,.53,4.01,.79,6.09,.79,5.78,0,8.67-1.93,8.67-5.78,0-1.21-.33-2.24-.99-3.09-.66-.84-1.6-1.58-2.82-2.22-1.22-.63-2.69-1.21-4.41-1.74-1.72-.53-3.65-1.11-5.78-1.74-2.59-.74-4.83-1.54-6.73-2.42-1.9-.87-3.49-1.9-4.76-3.09-1.27-1.19-2.22-2.56-2.85-4.12-.63-1.56-.95-3.42-.95-5.58,0-2.85,.51-5.39,1.52-7.6,1.01-2.22,2.42-4.07,4.22-5.55,1.8-1.48,3.89-2.6,6.28-3.37,2.38-.76,4.95-1.15,7.69-1.15,3.8,0,7.3,.62,10.5,1.86,3.2,1.24,5.99,2.71,8.37,4.4l-4.64,8.87Z"></path><path class="cls-2" d="M588.02,37.19v56.24h-10.42v-24h-24.5v24h-10.5V37.19h10.5v22.73h24.5v-22.73h10.42Z"></path><path class="cls-2" d="M649.73,51.92c-.36-.37-1-.87-1.94-1.5-.94-.63-2.08-1.25-3.42-1.86-1.34-.61-2.8-1.12-4.38-1.54-1.57-.42-3.17-.63-4.79-.63-2.89,0-5.05,.55-6.47,1.66-1.42,1.11-2.13,2.67-2.13,4.67,0,1.16,.27,2.13,.8,2.89,.53,.77,1.31,1.44,2.32,2.02,1.01,.58,2.3,1.11,3.84,1.58,1.55,.48,3.33,.98,5.36,1.51,2.64,.74,5.03,1.53,7.19,2.38,2.16,.85,3.98,1.9,5.48,3.17,1.5,1.27,2.65,2.79,3.46,4.56,.81,1.77,1.22,3.95,1.22,6.53,0,3.01-.55,5.58-1.64,7.72-1.09,2.14-2.56,3.87-4.41,5.19-1.85,1.32-3.98,2.28-6.39,2.89-2.41,.61-4.93,.91-7.57,.91-4.06,0-8.07-.63-12.02-1.9-3.96-1.27-7.51-3.06-10.65-5.39l4.64-9.43c.46,.48,1.28,1.1,2.47,1.86,1.19,.77,2.6,1.53,4.22,2.3,1.62,.77,3.42,1.41,5.4,1.94,1.98,.53,4.01,.79,6.09,.79,5.78,0,8.67-1.93,8.67-5.78,0-1.21-.33-2.24-.99-3.09-.66-.84-1.6-1.58-2.82-2.22-1.22-.63-2.69-1.21-4.41-1.74-1.72-.53-3.65-1.11-5.78-1.74-2.59-.74-4.83-1.54-6.73-2.42-1.9-.87-3.49-1.9-4.76-3.09-1.27-1.19-2.22-2.56-2.85-4.12-.63-1.56-.95-3.42-.95-5.58,0-2.85,.51-5.39,1.52-7.6,1.01-2.22,2.42-4.07,4.22-5.55,1.8-1.48,3.89-2.6,6.28-3.37,2.38-.76,4.95-1.15,7.69-1.15,3.8,0,7.3,.62,10.5,1.86,3.2,1.24,5.99,2.71,8.37,4.4l-4.64,8.87Z"></path><path class="cls-2" d="M687.02,84.16c2.48,0,4.58-.53,6.28-1.59,1.7-1.06,3.07-2.43,4.11-4.12,1.04-1.69,1.78-3.63,2.21-5.82,.43-2.19,.65-4.45,.65-6.77v-28.68h10.42v28.68c0,3.86-.45,7.47-1.33,10.85-.89,3.38-2.28,6.34-4.19,8.87s-4.35,4.54-7.34,6.02c-2.99,1.48-6.57,2.22-10.73,2.22s-7.98-.78-11-2.34c-3.02-1.56-5.47-3.62-7.34-6.18-1.88-2.56-3.23-5.53-4.07-8.91-.84-3.38-1.26-6.89-1.26-10.54v-28.68h10.5v28.68c0,2.38,.22,4.66,.65,6.85,.43,2.19,1.17,4.13,2.21,5.82,1.04,1.69,2.4,3.05,4.07,4.08,1.67,1.03,3.73,1.55,6.16,1.55Z"></path><path class="cls-2" d="M721.26,93.43V37.19h22.9c2.49,0,4.78,.54,6.89,1.62,2.1,1.08,3.92,2.51,5.44,4.28,1.52,1.77,2.71,3.78,3.58,6.02,.86,2.25,1.29,4.5,1.29,6.77s-.41,4.69-1.22,6.93c-.81,2.25-1.95,4.24-3.42,5.98-1.47,1.74-3.25,3.14-5.33,4.2-2.08,1.06-4.36,1.58-6.85,1.58h-12.78v18.85h-10.5Zm10.5-28.44h12.18c1.93,0,3.54-.82,4.83-2.46,1.29-1.64,1.94-3.85,1.94-6.65,0-1.43-.2-2.71-.61-3.84-.41-1.13-.94-2.1-1.6-2.89-.66-.79-1.43-1.39-2.32-1.78-.89-.4-1.79-.59-2.7-.59h-11.72v18.22Z"></path><path class="cls-2" d="M768.67,93.43V37.19h22.9c2.49,0,4.78,.54,6.89,1.62,2.1,1.08,3.92,2.51,5.44,4.28,1.52,1.77,2.71,3.78,3.58,6.02,.86,2.25,1.29,4.5,1.29,6.77s-.41,4.69-1.22,6.93c-.81,2.25-1.95,4.24-3.42,5.98-1.47,1.74-3.25,3.14-5.33,4.2-2.08,1.06-4.36,1.58-6.85,1.58h-12.78v18.85h-10.5Zm10.5-28.44h12.18c1.93,0,3.54-.82,4.83-2.46,1.29-1.64,1.94-3.85,1.94-6.65,0-1.43-.2-2.71-.61-3.84-.41-1.13-.94-2.1-1.6-2.89-.66-.79-1.43-1.39-2.32-1.78-.89-.4-1.79-.59-2.7-.59h-11.72v18.22Z"></path><path class="cls-2" d="M816.07,93.43V37.19h10.5v46.66h27.55v9.58h-38.05Z"></path><path class="cls-2" d="M860.51,93.43V37.19h10.5v56.24h-10.5Z"></path><path class="cls-2" d="M919.79,83.85v9.58h-37.51V37.19h36.83v9.58h-26.33v13.55h22.75v8.87h-22.75v14.66h27.01Z"></path><path class="cls-2" d="M960.19,51.92c-.36-.37-1-.87-1.94-1.5s-2.08-1.25-3.42-1.86c-1.34-.61-2.8-1.12-4.38-1.54-1.57-.42-3.17-.63-4.79-.63-2.89,0-5.05,.55-6.47,1.66-1.42,1.11-2.13,2.67-2.13,4.67,0,1.16,.27,2.13,.8,2.89,.53,.77,1.31,1.44,2.32,2.02,1.01,.58,2.3,1.11,3.84,1.58,1.55,.48,3.33,.98,5.36,1.51,2.64,.74,5.03,1.53,7.19,2.38,2.16,.85,3.98,1.9,5.48,3.17,1.5,1.27,2.65,2.79,3.46,4.56,.81,1.77,1.22,3.95,1.22,6.53,0,3.01-.55,5.58-1.64,7.72-1.09,2.14-2.56,3.87-4.41,5.19-1.85,1.32-3.98,2.28-6.39,2.89-2.41,.61-4.93,.91-7.57,.91-4.06,0-8.07-.63-12.02-1.9-3.96-1.27-7.51-3.06-10.65-5.39l4.64-9.43c.46,.48,1.28,1.1,2.47,1.86,1.19,.77,2.6,1.53,4.22,2.3,1.62,.77,3.42,1.41,5.4,1.94,1.98,.53,4.01,.79,6.09,.79,5.78,0,8.67-1.93,8.67-5.78,0-1.21-.33-2.24-.99-3.09-.66-.84-1.6-1.58-2.82-2.22-1.22-.63-2.69-1.21-4.41-1.74-1.72-.53-3.65-1.11-5.78-1.74-2.59-.74-4.83-1.54-6.73-2.42-1.9-.87-3.49-1.9-4.76-3.09-1.27-1.19-2.22-2.56-2.85-4.12-.63-1.56-.95-3.42-.95-5.58,0-2.85,.51-5.39,1.52-7.6,1.01-2.22,2.42-4.07,4.22-5.55,1.8-1.48,3.89-2.6,6.28-3.37,2.38-.76,4.95-1.15,7.69-1.15,3.8,0,7.3,.62,10.5,1.86,3.2,1.24,5.99,2.71,8.37,4.4l-4.64,8.87Z"></path></g><path class="cls-1" d="M107.64,77.68c-3.58,6.28-8.58,11.7-14.6,16.01-.51,.37-1.02,.74-1.54,.99v.25h65.56V26.22c-.26,0-.38-.12-.64-.12l-.38-.12c-6.79-1.97-14.08-1.48-20.49,1.23-6.53,2.83-11.78,7.63-14.85,13.79-.77,1.35-1.41,2.95-1.92,4.43-.26,.74-.38,1.48-.64,2.09-1.92,10.59-5.51,20.68-10.5,30.16m-3.46-57.86c3.58-6.16,8.58-11.7,14.6-15.88,.51-.37,1.02-.74,1.54-1.11v-.25H54.76V71.28c.26,.12,.51,.12,.64,.25l.38,.12c6.79,1.85,14.08,1.35,20.61-1.36,6.4-2.71,11.65-7.63,14.85-13.67,.64-1.48,1.28-2.96,1.79-4.43,.26-.74,.38-1.48,.64-2.22,1.92-10.47,5.51-20.56,10.5-30.16ZM29.16,131.61c20.87,16.74,48.91,22.53,75.03,15.39,26.12-7.02,46.99-25.85,55.83-50.6V0H53.48l-4.23,1.48C23.27,11.82,4.96,34.47,.86,61.07c-4.1,26.72,6.66,53.43,28.3,70.54Z"></path></g></g></svg> 